<?xml version="1.0" encoding="UTF-8" standalone="no"?>
<!-- Generator: Adobe Illustrator 16.0.0, SVG Export Plug-In . SVG Version: 6.00 Build 0)  -->

<svg
   xmlns:dc="http://purl.org/dc/elements/1.1/"
   xmlns:cc="http://creativecommons.org/ns#"
   xmlns:rdf="http://www.w3.org/1999/02/22-rdf-syntax-ns#"
   xmlns:svg="http://www.w3.org/2000/svg"
   xmlns="http://www.w3.org/2000/svg"
   xmlns:sodipodi="http://sodipodi.sourceforge.net/DTD/sodipodi-0.dtd"
   xmlns:inkscape="http://www.inkscape.org/namespaces/inkscape"
   version="1.1"
   id="Layer_1"
   x="0px"
   y="0px"
   width="47.163109"
   height="24.160202"
   viewBox="0 0 47.163109 24.160202"
   enable-background="new 0 0 261 169"
   xml:space="preserve"
   inkscape:version="0.48.4 r9939"
   sodipodi:docname="old-yak.svg"><metadata
     id="metadata17"><rdf:RDF><cc:Work
         rdf:about=""><dc:format>image/svg+xml</dc:format><dc:type
           rdf:resource="http://purl.org/dc/dcmitype/StillImage" /></cc:Work></rdf:RDF></metadata><defs
     id="defs15" /><sodipodi:namedview
     pagecolor="#ffffff"
     bordercolor="#666666"
     borderopacity="1"
     objecttolerance="10"
     gridtolerance="10"
     guidetolerance="10"
     inkscape:pageopacity="0"
     inkscape:pageshadow="2"
     inkscape:window-width="640"
     inkscape:window-height="480"
     id="namedview13"
     showgrid="false"
     inkscape:zoom="0.79109264"
     inkscape:cx="92.902364"
     inkscape:cy="-16.582091"
     inkscape:window-x="275"
     inkscape:window-y="24"
     inkscape:window-maximized="0"
     inkscape:current-layer="Layer_1"
     fit-margin-top="0"
     fit-margin-left="0"
     fit-margin-right="0"
     fit-margin-bottom="0" /><g
     id="g3"
     transform="matrix(0.24344638,0,0,0.24344638,-7.0925668,-9.1077293)"
     style="opacity:0.38059999"><path
       clip-rule="evenodd"
       d="m 191.372,131.601 c 10.606,0 20.979,0 31.493,0 -0.184,0.665 -0.361,1.196 -0.471,1.74 -0.131,0.647 -0.496,0.854 -1.14,0.865 -3.004,0.055 -6.006,0.156 -9.009,0.231 -9.771,0.247 -19.54,0.473 -29.31,0.736 -18.164,0.49 -36.325,1.171 -54.492,1.443 -11.105,0.167 -22.221,-0.258 -33.331,-0.46 -9.663,-0.177 -19.325,-0.409 -28.988,-0.624 -12.05,-0.269 -24.1,-0.546 -36.15,-0.82 -0.178,-0.004 -0.356,-0.025 -0.666,-0.05 -0.056,-0.968 -0.11,-1.919 -0.174,-3.02 21.003,0 41.901,0 62.974,0 -0.467,-1.805 -0.861,-3.443 -1.336,-5.058 -0.083,-0.281 -0.477,-0.519 -0.779,-0.678 -1.407,-0.742 -2.821,-1.474 -4.256,-2.16 -0.606,-0.291 -0.912,-0.667 -1.057,-1.355 -1.331,-6.332 -2.708,-12.653 -4.077,-18.978 -0.052,-0.24 -0.154,-0.471 -0.293,-0.888 -0.763,1.09 -1.393,2.097 -2.141,3.006 -0.291,0.354 -0.845,0.688 -1.283,0.693 -4.488,0.05 -8.978,0.018 -13.466,0.044 -0.71,0.005 -1.002,-0.17 -1.092,-0.935 -0.174,-1.468 -0.568,-2.91 -0.726,-4.379 -0.061,-0.566 0.127,-1.279 0.458,-1.743 0.754,-1.056 1.62,-2.046 2.532,-2.972 0.699,-0.71 1.005,-1.458 0.788,-2.425 -0.04,-0.175 -0.066,-0.362 -0.051,-0.54 0.24,-2.818 -1.147,-4.696 -3.333,-6.296 -1.804,-1.32 -3.42,-2.902 -5.068,-4.425 -0.349,-0.322 -0.604,-0.872 -0.67,-1.348 -0.147,-1.072 -0.194,-2.164 -0.191,-3.248 0.002,-0.682 -0.26,-0.948 -0.905,-1.078 -2.553,-0.514 -5.104,-1.043 -7.639,-1.643 -0.501,-0.118 -1.052,-0.479 -1.355,-0.893 -1.026,-1.399 -1.931,-2.886 -2.927,-4.308 -0.34,-0.485 -0.341,-0.834 -0.027,-1.344 1.556,-2.525 3.001,-5.12 4.613,-7.607 1.005,-1.551 1.008,-3.292 1.303,-4.979 0.635,-3.634 1.189,-7.283 1.783,-10.925 0.039,-0.237 0.13,-0.466 0.262,-0.925 0.616,5.019 1.216,9.79 1.767,14.567 0.063,0.549 -0.104,1.144 -0.249,1.695 -0.577,2.194 -1.187,4.379 -1.804,6.64 1.589,0 3.046,0 4.681,0 -0.756,-2.007 0.731,-2.588 1.91,-3.376 4.572,-3.057 9.131,-6.132 13.723,-9.16 0.473,-0.312 1.127,-0.499 1.694,-0.492 2.025,0.023 4.049,0.186 6.075,0.223 0.458,0.008 1.013,-0.161 1.367,-0.444 6.531,-5.219 13.049,-10.454 19.537,-15.728 0.832,-0.676 1.603,-0.879 2.66,-0.714 10.217,1.591 20.443,3.134 30.667,4.687 3.644,0.553 7.291,1.077 10.93,1.666 0.573,0.093 1.176,0.367 1.643,0.718 8.733,6.572 17.388,13.25 26.208,19.701 2.234,1.635 4.948,2.646 7.507,3.8 4.745,2.142 9.545,4.161 14.299,6.284 0.445,0.199 0.913,0.718 1.051,1.184 2.43,8.175 4.814,16.364 7.187,24.557 0.146,0.504 0.207,1.075 0.139,1.592 -0.753,5.737 -1.531,11.471 -2.333,17.2 -0.057,0.403 -0.297,0.808 -0.535,1.155 -2.392,3.493 -4.802,6.974 -7.203,10.459 -0.207,0.3 -0.391,0.608 -0.724,1.132 z m -49.566,-11.737 c -0.075,-0.014 -0.15,-0.027 -0.226,-0.041 -0.34,1.781 -0.681,3.563 -1.064,5.571 -0.419,-0.687 -0.717,-1.173 -1.015,-1.66 -0.094,0.032 -0.188,0.063 -0.282,0.096 0,0.786 -0.028,1.573 0.009,2.357 0.031,0.665 -0.256,0.872 -0.893,0.892 -1.735,0.053 -3.469,0.169 -5.203,0.248 -2.026,0.092 -2.023,0.085 -2.512,-1.876 -0.456,-1.832 -0.919,-3.662 -1.38,-5.493 -0.049,0.014 -0.098,0.026 -0.146,0.04 0,2.37 0,4.741 0,7.201 -1.345,-0.112 -2.633,-0.232 -3.924,-0.323 -3.286,-0.232 -3.284,-0.228 -3.951,-3.457 -0.447,-2.16 -0.904,-4.319 -1.356,-6.479 -0.082,0.005 -0.165,0.011 -0.247,0.017 -0.212,3.075 -0.425,6.151 -0.642,9.299 -1.69,-0.149 -3.257,-0.288 -4.909,-0.436 0.327,1.579 0.709,3.015 0.9,4.476 0.146,1.119 0.665,1.342 1.707,1.34 17.372,-0.031 34.744,-0.022 52.117,-0.022 0.289,0 0.603,0.066 0.861,-0.024 0.26,-0.092 0.571,-0.294 0.673,-0.528 0.642,-1.473 0.887,-2.844 -0.335,-4.287 -0.714,-0.843 -1.255,-1.43 -2.439,-1.248 -1.066,0.165 -2.163,0.169 -3.247,0.188 -1.643,0.028 -3.286,0.007 -5.125,0.007 0,-2 0,-4.083 0,-6.165 -0.1,-0.007 -0.2,-0.015 -0.3,-0.021 -0.457,1.913 -0.942,3.819 -1.354,5.741 -0.122,0.573 -0.363,0.791 -0.924,0.815 -1.518,0.065 -3.033,0.173 -4.551,0.251 -3.205,0.167 -6.411,0.327 -9.715,0.495 -0.18,-2.38 -0.354,-4.677 -0.527,-6.974 z M 98.397,44.459 c -0.064,0.008 -0.128,0.016 -0.192,0.023 -0.02,0.343 -0.05,0.686 -0.057,1.03 -0.067,3.293 -0.02,6.593 -0.228,9.876 -0.176,2.77 0.244,5.384 1.188,7.963 0.453,1.238 0.774,2.523 1.169,3.836 -0.347,0.081 -0.553,0.14 -0.762,0.176 -4.203,0.725 -8.408,1.44 -12.608,2.181 -0.321,0.056 -0.834,0.234 -0.88,0.439 -0.307,1.373 -0.709,2.776 -0.659,4.155 0.023,0.619 1.014,1.208 1.577,1.799 0.249,0.262 0.56,0.47 0.784,0.749 0.457,0.568 0.957,0.58 1.623,0.366 3.304,-1.064 6.625,-2.073 9.937,-3.112 1.617,-0.507 3.565,-0.644 4.745,-1.663 1.217,-1.051 1.653,-2.987 2.492,-4.502 0.325,-0.586 0.293,-1.017 -0.064,-1.573 -1.389,-2.16 -2.739,-4.345 -4.078,-6.535 -0.278,-0.456 -0.526,-0.958 -0.655,-1.471 -0.626,-2.487 -1.203,-4.986 -1.804,-7.479 -0.503,-2.087 -1.018,-4.172 -1.528,-6.258 z m 0.743,81.267 c 0.429,1.967 0.801,3.719 1.206,5.464 0.037,0.158 0.272,0.384 0.418,0.386 2.035,0.025 4.071,0.018 6.244,0.018 -0.409,-1.516 -0.747,-2.837 -1.136,-4.144 -0.065,-0.22 -0.325,-0.496 -0.538,-0.54 -1.971,-0.405 -3.952,-0.764 -6.194,-1.184 z m 84.079,0.892 c -1.505,1.695 -3.013,3.393 -4.43,4.988 1.331,0 2.977,0.017 4.62,-0.02 0.218,-0.005 0.521,-0.23 0.63,-0.436 1.059,-2 0.915,-2.83 -0.82,-4.532 z"
       id="path5"
       inkscape:connector-curvature="0"
       style="fill-rule:evenodd" /><path
       clip-rule="evenodd"
       d="m 141.806,119.864 c 0.174,2.297 0.348,4.594 0.528,6.972 3.304,-0.168 6.51,-0.328 9.715,-0.495 1.518,-0.078 3.033,-0.186 4.551,-0.251 0.561,-0.024 0.802,-0.242 0.924,-0.815 0.412,-1.922 0.897,-3.828 1.354,-5.741 0.1,0.007 0.2,0.015 0.3,0.021 0,2.082 0,4.165 0,6.165 1.839,0 3.482,0.021 5.125,-0.007 1.084,-0.019 2.181,-0.022 3.247,-0.188 1.185,-0.182 1.726,0.405 2.439,1.248 1.222,1.443 0.977,2.814 0.335,4.287 -0.102,0.234 -0.413,0.437 -0.673,0.528 -0.259,0.091 -0.572,0.024 -0.861,0.024 -17.373,0 -34.745,-0.009 -52.117,0.022 -1.042,0.002 -1.561,-0.221 -1.707,-1.34 -0.191,-1.461 -0.573,-2.896 -0.9,-4.476 1.652,0.147 3.219,0.286 4.909,0.436 0.217,-3.147 0.43,-6.224 0.642,-9.299 0.082,-0.006 0.165,-0.012 0.247,-0.017 0.452,2.159 0.909,4.318 1.356,6.479 0.667,3.229 0.665,3.225 3.951,3.457 1.291,0.091 2.579,0.211 3.924,0.323 0,-2.46 0,-4.831 0,-7.201 0.049,-0.014 0.098,-0.026 0.146,-0.04 0.461,1.831 0.924,3.661 1.38,5.493 0.488,1.961 0.485,1.968 2.512,1.876 1.734,-0.079 3.468,-0.195 5.203,-0.248 0.637,-0.02 0.924,-0.227 0.893,-0.892 -0.037,-0.784 -0.009,-1.571 -0.009,-2.357 0.094,-0.032 0.188,-0.063 0.282,-0.096 0.298,0.487 0.596,0.974 1.015,1.66 0.384,-2.008 0.725,-3.79 1.064,-5.571 0.074,0.016 0.149,0.03 0.225,0.043 z"
       id="path7"
       inkscape:connector-curvature="0"
       style="fill:#ffffff;fill-rule:evenodd" /><path
       clip-rule="evenodd"
       d="m 99.14,125.726 c 2.243,0.421 4.223,0.779 6.194,1.184 0.212,0.044 0.472,0.32 0.538,0.54 0.389,1.307 0.727,2.628 1.136,4.144 -2.173,0 -4.209,0.008 -6.244,-0.018 -0.146,-0.002 -0.381,-0.228 -0.418,-0.386 -0.405,-1.746 -0.778,-3.498 -1.206,-5.464 z"
       id="path9"
       inkscape:connector-curvature="0"
       style="fill:#ffffff;fill-rule:evenodd" /><path
       clip-rule="evenodd"
       d="m 183.219,126.618 c 1.735,1.702 1.879,2.532 0.82,4.533 -0.108,0.205 -0.412,0.431 -0.63,0.436 -1.644,0.036 -3.289,0.02 -4.62,0.02 1.417,-1.596 2.925,-3.294 4.43,-4.989 z"
       id="path11"
       inkscape:connector-curvature="0"
       style="fill:#ffffff;fill-rule:evenodd" /></g></svg>