<?xml version="1.0" encoding="utf-8"?>
<!-- Generator: Adobe Illustrator 16.0.0, SVG Export Plug-In . SVG Version: 6.00 Build 0)  -->
<!DOCTYPE svg PUBLIC "-//W3C//DTD SVG 1.1//EN" "http://www.w3.org/Graphics/SVG/1.1/DTD/svg11.dtd">
<svg version="1.1" id="Calque_1" xmlns="http://www.w3.org/2000/svg" xmlns:xlink="http://www.w3.org/1999/xlink" x="0px" y="0px"
	 width="100px" height="100px" viewBox="0 0 100 100" enable-background="new 0 0 100 100" xml:space="preserve">
<g>
	<polygon fill="#FFFFFF" points="47.202,26.299 45.922,25.02 46.561,23.74 37.604,25.022 38.243,26.301 	"/>
	<path fill="#FFFFFF" d="M45.021,33.065c1.917-1.436,2.403-4.069,1.208-6.083h-7.993c-0.926,1.567-0.88,3.602,0.277,5.148
		C40.051,34.183,42.968,34.603,45.021,33.065z"/>
	<path fill="#FFFFFF" d="M53.318,34.267c-0.59,0-1.131,0.212-1.551,0.566l-5.958,5.949l-7.193-7.191
		c-0.549-0.527-1.29-0.86-2.121-0.86l-11.278,0.003c-0.727,0-1.372,0.332-1.804,0.847l-6.535,7.529l-2.25-1.803
		c-0.338-0.271-0.833-0.217-1.104,0.122c-0.271,0.339-0.217,0.833,0.122,1.104l2.202,1.765l-0.223,0.257
		c-0.486,0.428-0.789,1.052-0.789,1.751c0,1.29,1.042,2.336,2.339,2.336c0.727,0,1.378-0.327,1.804-0.855l0.501-0.579l6.122,4.905
		c0.338,0.271,0.833,0.217,1.104-0.122c0.271-0.339,0.217-0.833-0.122-1.104l-6.075-4.868l5.696-6.577l4.163,0.019l-7.043,8.166
		l3.575,2.865c0.269,0.215,0.438,0.523,0.476,0.866c0.038,0.343-0.06,0.679-0.275,0.948c-0.247,0.308-0.614,0.484-1.008,0.484
		c-0.292,0-0.579-0.101-0.807-0.284l-3.634-2.912l-0.015-0.012l-7.185,8.331l-10.766-0.03c-0.248-0.007-0.5,0.014-0.754,0.072
		c-1.617,0.359-2.62,1.945-2.249,3.562c0.315,1.418,1.583,2.375,2.982,2.351l12.516-0.021c2.647,0.096,3.647-1.141,3.647-1.141
		L26,53.826l7.171,6.975l-2.906,12.942c-0.069,0.239-0.097,0.493-0.097,0.755c0,1.658,1.344,3.003,3.004,3.003
		c1.446,0,2.66-1.028,2.941-2.399l3.538-15.773c0.762-2.46-0.568-3.695-0.568-3.695l-6.315-6.314l6.892-7.969l4.408,4.431
		c0,0,1.757,1.848,3.938-0.329l7.186-7.242c0.343-0.417,0.543-0.944,0.543-1.528C55.732,35.351,54.654,34.267,53.318,34.267z"/>
</g>
<path fill="#FFFFFF" d="M96.979,34.267c-0.59,0-1.131,0.212-1.551,0.566l-5.959,5.949l-7.193-7.191
	c-0.549-0.527-1.289-0.86-2.118-0.86l-11.279,0.003c-0.728,0-1.371,0.332-1.803,0.847l-7.789,8.973
	c-0.486,0.428-0.789,1.052-0.789,1.751c0,1.29,1.041,2.336,2.338,2.336c0.728,0,1.379-0.327,1.806-0.855l7.227-8.344l4.162,0.019
	L58.111,55.914l-10.764-0.031c-0.248-0.007-0.5,0.014-0.755,0.072c-1.617,0.359-2.62,1.945-2.248,3.562
	c0.314,1.418,1.583,2.375,2.982,2.351l12.515-0.021c2.647,0.096,3.647-1.141,3.647-1.141l6.173-6.88l7.17,6.975l-2.906,12.942
	c-0.067,0.238-0.096,0.494-0.096,0.755c0,1.658,1.344,3.003,3.004,3.003c1.444,0,2.66-1.029,2.94-2.398l3.537-15.774
	c0.763-2.46-0.567-3.695-0.567-3.695l-6.316-6.314l6.894-7.969l4.408,4.431c0,0,1.756,1.848,3.938-0.329l7.186-7.242
	c0.344-0.417,0.543-0.944,0.543-1.528C99.395,35.351,98.314,34.267,96.979,34.267z"/>
<path fill="#FFFFFF" d="M82.105,31.988c1.463,2.107,4.363,2.631,6.47,1.168c0.815-0.565,1.391-1.346,1.707-2.212l-8.806-2.931
	C81.087,29.318,81.27,30.781,82.105,31.988z"/>
<g>
	<path fill="#FFFFFF" d="M87.294,24.888l0.399,0.141c0.082,0.029,0.173-0.014,0.199-0.096c0.029-0.082-0.014-0.171-0.096-0.199
		l-0.4-0.141c-0.082-0.029-0.172,0.015-0.198,0.096C87.169,24.77,87.212,24.859,87.294,24.888z"/>
	<path fill="#FFFFFF" d="M89.812,26.735c-1.511-2.174-4.502-2.715-6.677-1.206c-0.543,0.376-0.979,0.846-1.311,1.371l-2.019-0.669
		c-0.131-0.043-0.272,0.027-0.315,0.159c-0.043,0.131,0.026,0.272,0.157,0.316l0.078,0.026l10.765,3.583l0.153-0.465
		C90.732,28.784,90.471,27.683,89.812,26.735z"/>
</g>
</svg>
