<?xml version="1.0" encoding="utf-8"?>
<!-- Generator: Adobe Illustrator 16.0.0, SVG Export Plug-In . SVG Version: 6.00 Build 0)  -->
<!DOCTYPE svg PUBLIC "-//W3C//DTD SVG 1.1//EN" "http://www.w3.org/Graphics/SVG/1.1/DTD/svg11.dtd">
<svg version="1.1" id="Layer_1" xmlns="http://www.w3.org/2000/svg" xmlns:xlink="http://www.w3.org/1999/xlink" x="0px" y="0px"
	 width="100px" height="80px" viewBox="0 0 100 80" enable-background="new 0 0 100 80" xml:space="preserve">
<g id="Layer_x0020_1">
	<ellipse fill="#FFFFFF" cx="65.553" cy="6.511" rx="6.511" ry="6.511"/>
	<path fill="#FFFFFF" d="M57.855,76.154c0,2.015,1.636,3.65,3.648,3.65c2.02,0,3.652-1.636,3.652-3.65l0.004-30.625h1.625
		l-0.01,30.625c0,2.015,1.634,3.65,3.649,3.65s3.649-1.636,3.649-3.65l0.017-52.796h1.601v19.456c0,3.915,5.106,3.915,5.095,0
		V22.942c0-4.323-2.541-8.561-7.599-8.561l-14.596-0.007c-4.61,0-7.498,3.76-7.498,8.449v19.991c0,3.886,5.134,3.886,5.134,0V23.358
		h1.635L57.855,76.154L57.855,76.154z"/>
	<path fill="#FFFFFF" d="M44.055,19.841c4.182,0,5.879,3.446,6.512,5.347l5.138,16.888c1.024,3.635-3.597,5.139-4.697,1.598
		l-4.624-15.508h-1.346l8.015,27.586h-7.383v21.506c0,3.668-5.516,3.649-5.516,0V55.61h-2.25l0.005,21.617
		c0,3.698-5.54,3.698-5.54,0l-0.001-21.476h-7.407l7.951-27.586h-1.243l-4.624,15.563c-1.102,3.392-5.764,1.999-4.695-1.636
		l5.133-16.907c0.55-1.926,2.236-5.346,6.456-5.346L44.055,19.841L44.055,19.841z"/>
	<ellipse fill="#FFFFFF" cx="39.026" cy="12.586" rx="5.993" ry="5.993"/>
	<path fill="#FFFFFF" d="M92.354,42.068c2.623,0,3.688,2.162,4.086,3.354l3.223,10.596c0.643,2.277-2.256,3.221-2.947,1.001
		l-2.9-9.728h-0.844l5.026,17.303h-4.63v13.489c0,2.302-3.461,2.29-3.461,0V64.505h-1.41l0.002,13.561c0,2.319-3.475,2.319-3.475,0
		V64.594h-4.646l4.987-17.304h-0.779l-2.901,9.763c-0.69,2.127-3.615,1.254-2.945-1.026l3.221-10.604
		c0.345-1.209,1.402-3.354,4.051-3.354H92.354L92.354,42.068z"/>
	<ellipse fill="#FFFFFF" cx="89.199" cy="37.518" rx="3.76" ry="3.76"/>
	<ellipse fill="#FFFFFF" cx="10.302" cy="28.831" rx="4.528" ry="4.528"/>
	<path fill="#FFFFFF" d="M4.948,77.266c0,1.401,1.139,2.539,2.539,2.539c1.404,0,2.54-1.138,2.54-2.539l0.002-21.298h1.13
		l-0.007,21.298c0,1.401,1.137,2.539,2.539,2.539c1.402,0,2.539-1.138,2.539-2.539l0.011-36.718h1.113v13.531
		c0,2.722,3.552,2.722,3.544,0v-13.82c0-3.008-1.767-5.954-5.286-5.954L5.461,34.3c-3.206,0-5.214,2.614-5.214,5.876v13.902
		c0,2.704,3.569,2.704,3.569,0v-13.53h1.138L4.948,77.266L4.948,77.266z"/>
</g>
</svg>
