<?xml version="1.0" encoding="utf-8"?>
<!-- Generator: Adobe Illustrator 16.0.0, SVG Export Plug-In . SVG Version: 6.00 Build 0)  -->
<!DOCTYPE svg PUBLIC "-//W3C//DTD SVG 1.1//EN" "http://www.w3.org/Graphics/SVG/1.1/DTD/svg11.dtd">
<svg version="1.1" id="Layer_1" xmlns="http://www.w3.org/2000/svg" xmlns:xlink="http://www.w3.org/1999/xlink" x="0px" y="0px"
	 width="100px" height="97.221px" viewBox="0 0 100 97.221" enable-background="new 0 0 100 97.221" xml:space="preserve">
<path fill="#FFFFFF" d="M94.443,15.286h-8.334H36.111C6.945-4.158,0,20.841,0,20.841s3.028,2.258,4.167,2.779
	c1.188,0.542,2.778,1.389,5.555,1.389c0.223,0,15.812,0,33.557-0.001l16.444,15.27h8.334l-8.224-15.27c12.351,0,23.789,0,29.924,0
	l4.688,12.5H100V20.841C100,16.675,98.609,15.286,94.443,15.286z"/>
<polygon fill="#FFFFFF" points="59.932,12.508 66.666,0 58.333,0 44.863,12.508 "/>
<path fill="#FFFFFF" d="M54.586,46.556c0,1.15-0.933,2.084-2.083,2.084c-4.978,0-9.026-4.051-9.026-9.027
	c0-1.15,0.933-2.084,2.083-2.084c1.149,0,2.083,0.934,2.083,2.084c0,2.68,2.182,4.861,4.86,4.861
	C53.653,44.474,54.586,45.406,54.586,46.556z"/>
<path fill="#FFFFFF" d="M51.114,54.195c0,1.15-0.934,2.082-2.083,2.082c-7.274,0-13.194-5.918-13.194-13.193
	c0-1.148,0.934-2.083,2.083-2.083c1.15,0,2.083,0.935,2.083,2.083c0,4.979,4.051,9.027,9.028,9.027
	C50.182,52.111,51.114,53.044,51.114,54.195z"/>
<path fill="#FFFFFF" d="M47.643,61.833c0,1.15-0.934,2.084-2.083,2.084c-9.573,0-17.361-7.788-17.361-17.361
	c0-1.149,0.935-2.082,2.084-2.082s2.083,0.933,2.083,2.082c0,7.275,5.919,13.194,13.194,13.194
	C46.709,59.75,47.643,60.683,47.643,61.833z"/>
<polygon fill="#FFFFFF" points="77.777,27.786 77.777,37.508 83.333,37.508 86.979,27.786 "/>
</svg>
