<?xml version="1.0" encoding="utf-8"?>
<!-- Generator: Adobe Illustrator 16.0.0, SVG Export Plug-In . SVG Version: 6.00 Build 0)  -->
<!DOCTYPE svg PUBLIC "-//W3C//DTD SVG 1.1//EN" "http://www.w3.org/Graphics/SVG/1.1/DTD/svg11.dtd">
<svg version="1.1" id="Layer_1" xmlns="http://www.w3.org/2000/svg" xmlns:xlink="http://www.w3.org/1999/xlink" x="0px" y="0px"
	 width="100px" height="75px" viewBox="0 0 100 75" enable-background="new 0 0 100 75" xml:space="preserve">
<g id="Layer_x0020_1">
	<path fill="#FFFFFF" d="M48.37,43.695v22.242c0,1.698-1.389,3.087-3.086,3.087l0,0c-1.698,0-3.086-1.389-3.086-3.087v-7.996
		L7.603,59.721v15.174H0V43.205h7.603v6.348l34.594,2.299v-8.156c-2.361-1.098-3.989-3.416-3.989-6.098
		c0-0.106,0.003-0.211,0.008-0.316L15.204,26.298c-0.989-0.472-1.41-1.669-0.937-2.657L25.004,1.234
		c0.473-0.988,1.668-1.407,2.657-0.935l62.714,29.933l0.007,0.003c0.294,0.131,9.691,4.326,9.617,4.993
		c-0.076,0.678-3.539,0.64-6.625,1.167c-3.076,0.525-4.094,1.571-4.112,1.614L88.1,40.436c0.202-0.134,0.467-0.162,0.701-0.051
		l1.806,0.866c0.353,0.169,0.503,0.596,0.334,0.948l-4.199,8.765c-0.169,0.353-0.596,0.503-0.948,0.334l-1.807-0.866
		c-0.233-0.111-0.378-0.336-0.4-0.578l-2.683,5.599c-0.474,0.987-1.668,1.407-2.657,0.935L49.802,42.811
		C49.365,43.158,48.885,43.456,48.37,43.695L48.37,43.695z M47.197,29.952c1.83,0,3.313,1.483,3.313,3.312
		c0,1.83-1.483,3.312-3.313,3.312c-1.829,0-3.312-1.483-3.312-3.312C43.884,31.436,45.368,29.952,47.197,29.952z M47.197,28.447
		c2.661,0,4.818,2.157,4.818,4.817s-2.157,4.817-4.818,4.817s-4.817-2.157-4.817-4.817S44.536,28.447,47.197,28.447z"/>
</g>
</svg>
