<?xml version="1.0" encoding="utf-8"?>
<!-- Generator: Adobe Illustrator 16.0.0, SVG Export Plug-In . SVG Version: 6.00 Build 0)  -->
<!DOCTYPE svg PUBLIC "-//W3C//DTD SVG 1.1//EN" "http://www.w3.org/Graphics/SVG/1.1/DTD/svg11.dtd">
<svg version="1.1" id="Calque_1" xmlns="http://www.w3.org/2000/svg" xmlns:xlink="http://www.w3.org/1999/xlink" x="0px" y="0px"
	 width="100px" height="100px" viewBox="0 0 100 100" enable-background="new 0 0 100 100" xml:space="preserve">
<path fill="#FFFFFF" d="M37.375,17.382C17.848,23.648,5.31,44.606,9.423,64.104c3.378,15.99,19.171,24.808,35.214,19.658
	c16.039-5.146,26.345-22.351,22.97-38.332c-2.631-12.462-14.988-19.323-27.542-15.294c-12.428,3.987-20.394,17.371-17.755,29.839
	C24.199,68.924,33.008,73.87,41.94,71.01c8.941-2.883,14.677-12.492,12.781-21.445c-1.156-5.523-6.42-8.453-11.971-6.675
	c-5.313,1.702-8.705,7.516-7.567,12.947c0.401,1.884,2.089,2.793,4.018,2.177c2.004-0.641,3.275-2.568,2.894-4.395
	c-0.354-1.665,0.622-3.546,2.075-4.012c1.643-0.527,3.28,0.443,3.65,2.179c1.102,5.245-2.173,10.853-7.295,12.507
	C35.4,65.932,30.32,63.009,29.21,57.761c-1.848-8.765,3.665-18.143,12.274-20.913c8.742-2.804,17.36,2.038,19.206,10.802
	c2.597,12.286-5.244,25.469-17.474,29.388c-12.224,3.931-24.282-2.865-26.867-15.146c-3.336-15.809,6.726-32.762,22.443-37.8
	c15.703-5.038,31.204,3.707,34.541,19.5c4.076,19.319-8.228,40.046-27.425,46.201c-5.756,1.854-11.812,2.198-17.985,1.031
	c-0.892-0.252-1.932-0.103-2.807,0.448c-0.83,0.504-1.43,1.302-1.663,2.188c-0.143,0.562-0.166,1.145-0.045,1.705
	c0.278,1.301,1.2,2.22,2.411,2.398c6.872,1.615,14.327,1.25,21.504-1.055c23.01-7.38,37.778-32.123,32.923-55.14
	C76.13,21.879,56.896,11.113,37.375,17.382z"/>
<path fill="#FFFFFF" d="M93.607,36.139c-2.613-12.373-9.938-22.46-20.629-28.406C62.279,1.789,49.498,0.707,37,4.722
	c-1.92,0.62-3.162,2.641-2.77,4.511c0.395,1.873,2.254,2.904,4.205,2.271C49.033,8.1,59.891,9.005,68.997,14.08
	c9.14,5.083,15.397,13.71,17.635,24.302c0.313,1.497,1.587,2.447,3.067,2.447c0.369,0,0.752-0.053,1.133-0.176
	C92.762,40.03,94.006,38.014,93.607,36.139z"/>
</svg>
